PathFileType	4	(X/Y/Z)	C:\Users\WrightLab\Desktop\Jo\P2_Trial14.trc
DataRate	CameraRate	NumFrames	NumMarkers	Units	OrigDataRate	OrigDataStartFrame	OrigNumFrames
100.00	100.00	       11	19	mm	100.00	196	       781
Frame#	Time	Headset_Front			Headset_Back			Headset_Left			Headset_Right			Left_Shoulder			Right_Shoulder			Sternum			C7			Left Elbow			Right Elbow			Left Wrist			Right Wrist			Left ASIS			Right ASIS			S2			Left Knee			Right Knee			Left Ankle			Right Ankle			
		X1	Y1	Z1	X2	Y2	Z2	X3	Y3	Z3	X4	Y4	Z4	X5	Y5	Z5	X6	Y6	Z6	X7	Y7	Z7	X8	Y8	Z8	X9	Y9	Z9	X10	Y10	Z10	X11	Y11	Z11	X12	Y12	Z12	X13	Y13	Z13	X14	Y14	Z14	X15	Y15	Z15	X16	Y16	Z16	X17	Y17	Z17	X18	Y18	Z18	X19	Y19	Z19	

196	1.950	105.49960	1488.85901	1683.55249	-73.94299	1423.68225	1605.17969	-89.67619	1578.12500	1552.09448	40.50552	1686.06750	1518.67517	-210.57393	1121.76257	1593.13196	243.13780	1482.79236	1552.36401										428.66214	1227.31323	1688.43787	-296.30353	984.77911	1465.34570	356.96426	1090.60583	1518.92163							167.04283	1036.69653	1895.88440	28.81671	487.97827	1768.51880	376.15836	611.41547	1762.70276	33.81792	132.74522	1763.58582	348.46710	178.62811	1706.74731	
197	1.960	105.58861	1489.05981	1683.95813	-73.71186	1423.50659	1605.47461	-89.56479	1578.57153	1552.71143				-209.76038	1121.83667	1595.41687	243.51299	1482.91809	1551.87451										428.83920	1227.25342	1688.12268	-295.46939	986.71680	1466.60449	356.76987	1090.68726	1518.45850							167.03133	1036.71399	1895.81165	27.72071	486.70184	1768.15002	376.76385	611.77991	1760.46777	33.79254	132.74922	1763.55933	348.20200	178.49208	1705.89502	
198	1.970	106.09303	1489.13892	1683.61768	-73.30463	1423.52039	1605.27930	-89.40685	1578.79089	1553.31384				-209.24530	1122.24060	1596.73413	243.14667	1483.15015	1550.77441										429.18506	1227.14917	1687.71582	-295.05188	988.54358	1468.03894	356.56674	1090.93689	1517.97693							167.24930	1036.51990	1895.41370	26.03088	485.95602	1769.23535	377.46326	611.90546	1758.54053	33.75190	132.73842	1763.52820	348.02274	178.45113	1705.83337	
199	1.980	106.65646	1489.35278	1683.22498	-72.52643	1423.28992	1604.48389	-88.33890	1578.55505	1552.09167				-208.55632	1122.35681	1600.59705	243.32147	1483.27295	1550.37927										429.39304	1227.07922	1686.97180	-294.04926	989.54114	1468.59521	356.33920	1091.31299	1517.56128							167.60532	1036.34143	1894.73865	24.97009	486.02853	1767.50110	378.08890	611.83704	1757.40576	33.72443	132.72865	1763.50867	347.96216	178.31699	1705.80066	
200	1.990	107.67293	1489.10986	1682.34692	-72.10404	1423.26453	1604.46057	-88.09690	1578.84729	1552.31116				-208.05850	1122.81445	1602.56104	243.40176	1483.35669	1550.17468										429.87201	1227.12390	1686.61182	-293.27338	990.83093	1469.93530	356.69897	1091.21191	1517.62915							167.82675	1036.21118	1894.34961	23.68644	486.43243	1765.88489	378.81763	611.71918	1755.88281	33.70347	132.72012	1763.49451	347.43387	178.14351	1705.42688	
201	2.000	108.03003	1489.27405	1682.62329	-71.91738	1423.58789	1605.16589	-87.57800	1578.83948	1551.83472				-208.10402	1122.76697	1605.63513	244.19727	1483.40576	1549.97583										430.11920	1227.08630	1686.17505	-292.52872	992.56165	1470.27698	356.68036	1091.55762	1517.22583							168.02405	1036.14844	1893.98828	23.09971	486.31860	1765.78247	379.27914	611.83246	1755.02173	33.69604	132.57729	1763.62952	347.47266	177.81013	1705.67505	
202	2.010	108.23560	1489.23877	1682.97607	-71.13511	1424.00757	1604.91052	-87.49287	1578.96997	1552.15662				-208.03432	1122.93616	1607.54871	244.59128	1483.40381	1549.02185										430.58356	1227.16125	1685.70642	-292.81036	994.79987	1472.47900	356.90317	1091.25952	1517.09875							168.24992	1036.43262	1893.40503	22.40464	485.92599	1765.56213	379.43506	611.53406	1753.76294	33.68088	132.56235	1763.62488	347.48584	177.51251	1704.58289	
203	2.020	109.37688	1488.97961	1681.57227	-70.89138	1424.42554	1605.83362	-87.15010	1578.94519	1552.15991				-208.11195	1123.20215	1609.10168	245.83705	1483.65051	1548.71191										430.96954	1227.36755	1685.01355	-292.84872	995.85034	1473.86829	357.26215	1091.37830	1516.26855							168.45139	1036.28699	1893.20251	21.64903	485.86627	1764.57910	379.56528	611.77826	1752.91345	33.66161	132.54568	1763.61755	347.58551	177.01064	1704.12854	
204	2.030	109.49732	1489.20435	1682.13818	-70.72142	1424.73022	1606.47302	-86.74889	1579.13123	1551.89380				-208.15912	1123.65918	1609.94897	246.05794	1483.65454	1548.32385										431.40002	1227.26563	1684.03992	-292.40469	996.99738	1473.84631	357.10727	1091.33301	1515.57117							168.66606	1036.28760	1892.94788	20.52652	485.83234	1763.79529	379.47018	611.68915	1751.63306	33.53594	132.38498	1763.81311	347.70737	177.05475	1703.64038	
205	2.040	109.80570	1489.46631	1682.41406	-70.37176	1425.40674	1606.53564	-86.31927	1579.07300	1551.54114				-208.10291	1123.90308	1611.66516	246.38081	1483.80713	1547.90686										431.74899	1227.28601	1682.89966	-292.08585	999.46057	1473.68250	357.30615	1091.51953	1515.01514							169.09177	1036.42981	1892.33948	20.12043	485.79922	1763.74414	379.40933	611.52100	1751.58765	33.51629	132.37215	1763.80298	347.83154	176.95837	1703.42358	
206	2.050	110.98249	1489.18262	1681.20520	-70.04409	1425.32690	1606.72888	-85.89403	1578.91223	1551.25793				-207.93990	1123.77625	1613.60706	246.52676	1483.59143	1547.90527										432.25125	1227.21350	1682.34851	-292.03342	1000.63409	1474.66357	357.62640	1091.25146	1515.03027							169.32240	1036.38220	1892.25037	18.27449	485.24698	1764.32910	379.02213	611.39459	1750.75366	33.50992	131.55595	1763.29272	348.10461	176.47234	1703.03589	
